# xmcd CD database file
#
# Track frame offsets:
#	150
#	10565
#	31434
#	48671
#	67600
#	90458
#	104787
#	130213
#	152302
#	179839
#	198017
#	223939
#	239280
#	251645
#	279645
#
# Disc length: 4071 seconds
#
# Revision: 3
# Processed by: cddbd v1.5.2PL0 Copyright (c) Steve Scherf et al.
# Submitted via: CDex 1.51
#
DISCID=ce0fe50f
DTITLE=DJ Smash - Phonography 2
DYEAR=2003
DGENRE=Jazz
TTITLE0=Charlie Hunter - Street Sound (feat. Mos Def)
TTITLE1=Greg Osby - Poetry in Motion
TTITLE2=Soulive - Bridge to Bama (feat. Talib Kweli) (Hi tek remix)
TTITLE3=Bob Belden Project - Kiss (feat. Jimi Tunnell) (DJ Smash Remix)
TTITLE4=Erik Truffaz - Magrouni (Imhotep Remix)
TTITLE5=Henri Salvador - Jazz Mediterranée (Koop remix)
TTITLE6=Wild Magnolias - Battlefield (Joe Claussell remix)
TTITLE7=Marc Moulin - Into the Dark
TTITLE8=St. Germain - So Flute
TTITLE9=Goran Kajfes - Mesquelero
TTITLE10=Bobby McFerrin - Pat and Joe (DJ Smash remix)
TTITLE11=Don Byron - Belmondo's Lip (DJ Spooky remix)
TTITLE12=Medeski, Martin and Wood - Uninvisible (DJ Smash remix)
TTITLE13=Bob Belden Project - Come Together (feat. Cassandra Wilson and Dianne Reeves) (DJ Kingsize remix)
TTITLE14=Jason Moran - Planet Rock
EXTD=YEAR: 2003
EXTT0=
EXTT1=
EXTT2=
EXTT3=
EXTT4=
EXTT5=
EXTT6=
EXTT7=
EXTT8=
EXTT9=
EXTT10=
EXTT11=
EXTT12=
EXTT13=
EXTT14=
PLAYORDER=
